# xmcd
# 
# Track frame offsets:
#     150
#     19261
#     37007
#     52952
#     68496
#     83347
#     96955
#     113973
#     131429
#     143076
#     159024
#     177693
# 
# Disc length: 2516
# 
# Revision: 0
# Processed by: cddbd v1.5.2PL0 Copyright (c) Steve Scherf et al.
# Submitted via: BonkEnc v1.0.6
# 
DISCID=9409d20c
DTITLE=Vera Martinova - Slunci je to jedno
DYEAR=0
DGENRE=Country
TTITLE0=Yamba Damba
TTITLE1=Az
TTITLE2=Byls frajer
TTITLE3=Zkus mi rict
TTITLE4=Jen tak koukam
TTITLE5=Noc
TTITLE6=Ma pychu kralu
TTITLE7=Nebe nad Kartagem
TTITLE8=Lasky pul
TTITLE9=Hvezda v tisni
TTITLE10=Vim,ze pujdu i ja
TTITLE11=Slunci je to jedno
EXTD=
EXTT0=
EXTT1=
EXTT2=
EXTT3=
EXTT4=
EXTT5=
EXTT6=
EXTT7=
EXTT8=
EXTT9=
EXTT10=
EXTT11=
PLAYORDER=
